<?xml version="1.0" encoding="utf-8"?>
<!-- Generator: Adobe Illustrator 16.0.0, SVG Export Plug-In . SVG Version: 6.00 Build 0)  -->
<!DOCTYPE svg PUBLIC "-//W3C//DTD SVG 1.1//EN" "http://www.w3.org/Graphics/SVG/1.1/DTD/svg11.dtd">
<svg version="1.1" id="Layer_1" xmlns="http://www.w3.org/2000/svg" xmlns:xlink="http://www.w3.org/1999/xlink" x="0px" y="0px"
	 width="520px" height="250px" viewBox="0 0 520 250" enable-background="new 0 0 520 250" xml:space="preserve">
<g>
	<path fill="#FFFFFF" d="M195.008,236.644c-2.416,7.234,1.857,13.356,9.483,13.356H315.5c7.635,0,11.905-6.122,9.49-13.356
		L264.386,54.73c-2.415-7.24-6.365-7.19-8.775,0.05L195.008,236.644z"/>
	<path fill="#FFFFFF" d="M0.748,236.644C-1.668,243.878,2.604,250,10.231,250H121.24c7.632,0,11.897-6.122,9.487-13.356
		L70.125,54.73c-2.415-7.24-6.366-7.19-8.78,0.05L0.748,236.644z"/>
	<path fill="#FFFFFF" d="M227.859,13.086C230.274,5.846,226.003,0,218.371,0H107.367c-7.639,0-11.904,5.846-9.496,13.086
		l60.609,181.769c2.416,7.241,6.359,7.261,8.775,0.021L227.859,13.086z"/>
	<path fill="#FFFFFF" d="M389.268,236.644c-2.415,7.234,1.856,13.356,9.489,13.356H509.76c7.634,0,11.905-6.122,9.496-13.356
		L458.647,54.73c-2.417-7.24-6.359-7.19-8.776,0.05L389.268,236.644z"/>
	<path fill="#FFFFFF" d="M422.119,13.086C424.535,5.846,420.264,0,412.637,0h-111.01c-7.633,0-11.904,5.846-9.488,13.086
		l60.604,181.769c2.414,7.241,6.365,7.261,8.773,0.021L422.119,13.086z"/>
</g>
</svg>
